<?xml version="1.0" standalone="no"?><svg xmlns="http://www.w3.org/2000/svg" viewBox="0 0 1440 320"><path fill="#2b2c3e" fill-opacity="1" d="M0,128L17.1,122.7C34.3,117,69,107,103,90.7C137.1,75,171,53,206,69.3C240,85,274,139,309,149.3C342.9,160,377,128,411,122.7C445.7,117,480,139,514,160C548.6,181,583,203,617,197.3C651.4,192,686,160,720,128C754.3,96,789,64,823,64C857.1,64,891,96,926,122.7C960,149,994,171,1029,197.3C1062.9,224,1097,256,1131,266.7C1165.7,277,1200,267,1234,245.3C1268.6,224,1303,192,1337,186.7C1371.4,181,1406,203,1423,213.3L1440,224L1440,0L1422.9,0C1405.7,0,1371,0,1337,0C1302.9,0,1269,0,1234,0C1200,0,1166,0,1131,0C1097.1,0,1063,0,1029,0C994.3,0,960,0,926,0C891.4,0,857,0,823,0C788.6,0,754,0,720,0C685.7,0,651,0,617,0C582.9,0,549,0,514,0C480,0,446,0,411,0C377.1,0,343,0,309,0C274.3,0,240,0,206,0C171.4,0,137,0,103,0C68.6,0,34,0,17,0L0,0Z"></path></svg>